<svg width="22" height="26" viewBox="0 0 22 26" fill="none" xmlns="http://www.w3.org/2000/svg">
<path d="M1.66669 11.6667V10.6667C1.11441 10.6667 0.666687 11.1144 0.666687 11.6667H1.66669ZM20.3334 11.6667H21.3334C21.3334 11.1144 20.8856 10.6667 20.3334 10.6667V11.6667ZM20.3334 25V26C20.8856 26 21.3334 25.5523 21.3334 25H20.3334ZM1.66669 25H0.666687C0.666687 25.5523 1.11441 26 1.66669 26V25ZM1.66669 12.6667H20.3334V10.6667H1.66669V12.6667ZM19.3334 11.6667V25H21.3334V11.6667H19.3334ZM20.3334 24H1.66669V26H20.3334V24ZM2.66669 25V11.6667H0.666687V25H2.66669ZM6.66669 6.33333C6.66669 3.94009 8.60682 2 11 2V0C7.50222 0 4.66669 2.83553 4.66669 6.33333H6.66669ZM11 2C13.3932 2 15.3334 3.94009 15.3334 6.33333H17.3334C17.3334 2.83553 14.4979 0 11 0V2ZM4.66669 6.33333V11.6667H6.66669V6.33333H4.66669ZM15.3334 6.33333V11.6667H17.3334V6.33333H15.3334Z" fill="white"/>
</svg>
